<svg width="34" height="36" viewBox="0 0 34 36" fill="none" xmlns="http://www.w3.org/2000/svg">
<path d="M33.8315 16.8899C33.8234 19.7669 33.0826 22.5943 31.6792 25.1058C30.2757 27.6172 28.2558 29.7298 25.8099 31.2445C23.3639 32.7591 20.5725 33.6259 17.6988 33.7631C14.8251 33.9003 11.9639 33.3034 9.38473 32.0287L1.76112 35.6767C1.62202 35.7435 1.46705 35.7701 1.31366 35.7535C1.16026 35.737 1.01453 35.678 0.892834 35.5832C0.771145 35.4883 0.678329 35.3614 0.624832 35.2167C0.571335 35.072 0.559277 34.9152 0.590012 34.764L2.4327 25.8373C2.44135 25.7953 2.45313 25.754 2.46793 25.7137C1.11032 23.4842 0.287079 20.9708 0.0626335 18.3702C-0.161808 15.7696 0.218636 13.1523 1.17419 10.7233C2.12976 8.29417 3.6345 6.11918 5.57066 4.36852C7.50682 2.61786 9.82186 1.33902 12.3346 0.632092C14.8473 -0.0748291 17.4896 -0.190655 20.0545 0.293682C22.6195 0.778023 25.0375 1.84938 27.1194 3.42391C29.2014 4.99844 30.8907 7.03341 32.0551 9.36956C33.2196 11.7057 33.8276 14.2797 33.8315 16.8899Z" fill="url(#paint0_linear_8938_1992)"/>
<path d="M25.1786 20.889C25.0736 20.7129 24.7917 20.6078 24.3681 20.3957C23.9446 20.1836 21.8691 19.1617 21.4808 19.0208C21.0925 18.8798 20.8127 18.8087 20.5294 19.2329C20.2461 19.6571 19.4377 20.6078 19.1918 20.8911C18.9458 21.1744 18.6984 21.2082 18.2763 20.9961C17.0303 20.5001 15.8804 19.7905 14.8783 18.8992C13.9548 18.0449 13.1632 17.0584 12.5292 15.9718C12.2833 15.5496 12.5037 15.3209 12.7144 15.1102C12.9051 14.9209 13.1365 14.6169 13.3487 14.3695C13.525 14.1574 13.6687 13.9201 13.775 13.6655C13.8313 13.5489 13.8576 13.42 13.8514 13.2907C13.8453 13.1613 13.8069 13.0355 13.7397 12.9248C13.6333 12.7175 12.7883 10.6344 12.4373 9.78872C12.0919 8.96583 11.7464 9.07638 11.4859 9.06395L10.6741 9.04736C10.46 9.05276 10.2494 9.10252 10.0556 9.1935C9.8617 9.28448 9.68884 9.4147 9.5479 9.57592C9.07043 10.0285 8.69238 10.5755 8.43783 11.1822C8.18327 11.7888 8.05778 12.4418 8.06933 13.0996C8.06933 15.1793 9.58314 17.1885 9.79663 17.4697C10.0101 17.7509 12.7752 22.0194 17.0133 23.8489C17.8 24.1876 18.604 24.4846 19.4218 24.7388C20.2839 25.0006 21.1951 25.0581 22.0833 24.9067C22.8951 24.7858 24.5823 23.8842 24.9354 22.8975C25.2126 22.2659 25.2981 21.5668 25.1813 20.887L25.1786 20.889Z" fill="white"/>
<defs>
<linearGradient id="paint0_linear_8938_1992" x1="16.9158" y1="-6.48499e-05" x2="16.9158" y2="35.7583" gradientUnits="userSpaceOnUse">
<stop stop-color="#A6FF00"/>
<stop offset="1" stop-color="#00A988"/>
</linearGradient>
</defs>
</svg>
